<svg width="24" height="24" viewBox="0 0 24 24" fill="none" xmlns="http://www.w3.org/2000/svg">
<path d="M16.2426 7.75735C16.3833 7.898 16.4623 8.08877 16.4623 8.28768C16.4623 8.48659 16.3833 8.67736 16.2426 8.81801L13.0607 12L16.2426 15.182C16.3833 15.3226 16.4623 15.5134 16.4623 15.7123C16.4623 15.9112 16.3833 16.102 16.2426 16.2426C16.102 16.3833 15.9112 16.4623 15.7123 16.4623C15.5134 16.4623 15.3226 16.3833 15.182 16.2426L12 13.0607L8.81802 16.2426C8.67737 16.3833 8.4866 16.4623 8.28769 16.4623C8.08878 16.4623 7.89801 16.3833 7.75736 16.2426C7.61671 16.102 7.53769 15.9112 7.53769 15.7123C7.53769 15.5134 7.61671 15.3226 7.75736 15.182L10.9393 12L7.75736 8.81801C7.61671 8.67736 7.53769 8.48659 7.53769 8.28768C7.53769 8.08877 7.61671 7.898 7.75736 7.75735C7.89801 7.6167 8.08878 7.53768 8.28769 7.53768C8.4866 7.53768 8.67737 7.6167 8.81802 7.75735L12 10.9393L15.182 7.75735C15.3226 7.6167 15.5134 7.53768 15.7123 7.53768C15.9112 7.53768 16.102 7.6167 16.2426 7.75735Z" fill="#082B16"/>
</svg>
